<svg id="visual" viewBox="0 0 960 540" width="960" height="540" xmlns="http://www.w3.org/2000/svg" xmlns:xlink="http://www.w3.org/1999/xlink" version="1.1"><rect x="0" y="0" width="960" height="540" fill="#001220"></rect><defs><linearGradient id="grad1_0" x1="43.8%" y1="0%" x2="100%" y2="100%"><stop offset="14.444444444444446%" stop-color="#001220" stop-opacity="1"></stop><stop offset="85.55555555555554%" stop-color="#001220" stop-opacity="1"></stop></linearGradient></defs><defs><linearGradient id="grad2_0" x1="0%" y1="0%" x2="56.3%" y2="100%"><stop offset="14.444444444444446%" stop-color="#001220" stop-opacity="1"></stop><stop offset="85.55555555555554%" stop-color="#001220" stop-opacity="1"></stop></linearGradient></defs><g transform="translate(960, 0)"><path d="M0 486C-56.3 452.5 -112.6 419 -161.1 389C-209.6 358.9 -250.2 332.4 -301.9 301.9C-353.7 271.4 -416.5 237 -449 186C-481.5 135 -483.8 67.5 -486 0L0 0Z" fill="#132827"></path></g><g transform="translate(0, 540)"><path d="M0 -486C51.1 -449.7 102.3 -413.4 163.8 -395.4C225.3 -377.4 297.2 -377.7 343.7 -343.7C390.1 -309.6 411 -241.3 430.5 -178.3C450 -115.3 468 -57.7 486 0L0 0Z" fill="#132827"></path></g></svg>